{"accessors" : [{"bufferView" : 0, "byteOffset" : 0, "componentType" : 5123, "count" : 53952, "type" : "SCALAR", "max" : [44609], "min" : [0]}, {"bufferView" : 1, "byteOffset" : 0, "componentType" : 5126, "count" : 44610, "type" : "VEC3", "max" : [0.3018924295902252, 0.8024238348007202, 1.3129682540893555], "min" : [-0.3018924295902252, -0.7832613587379456, -1.291171669960022], "name" : "POSITION"}, {"bufferView" : 1, "byteOffset" : 12, "componentType" : 5126, "count" : 44610, "type" : "VEC3", "max" : [1.0000044107437134, 1.0000044107437134, 1.0000044107437134], "min" : [-1.0000044107437134, -1.0000044107437134, -1.0000044107437134], "name" : "NORMAL"}, {"bufferView" : 1, "byteOffset" : 24, "componentType" : 5126, "count" : 44610, "type" : "VEC2", "max" : [0.9889822602272034, 1], "min" : [0, 0.009538590908050537], "name" : "TEXCOORD_0"}], "asset" : {"generator" : "Aspose.3D 22.7", "version" : "2.0"}, "buffers" : [{"uri" : "data:application/octet-stream;base64,", "byteLength" : 1834376}], "bufferViews" : [{"buffer" : 0, "byteOffset" : 0, "byteLength" : 107904, "target" : 34963}, {"buffer" : 0, "byteOffset" : 107908, "byteLength" : 1726464, "byteStride" : 32, "target" : 34962}], "images" : [{"uri" : "data:image/png;base64,"}], "materials" : [{"name" : "Cistothorus apolinari Material", "pbrMetallicRoughness" : {"baseColorFactor" : [1, 1, 1, 1], "baseColorTexture" : {"index" : 0, "texCoord" : 0}, "metallicFactor" : 0, "roughnessFactor" : 0.5}, "emissiveFactor" : [0, 0, 0], "alphaMode" : "OPAQUE", "doubleSided" : true}], "meshes" : [{"primitives" : [{"attributes" : {"POSITION" : 1, "NORMAL" : 2, "TEXCOORD_0" : 3}, "indices" : 0, "material" : 0, "mode" : 4}]}], "nodes" : [{"mesh" : 0, "name" : "Cistothorus apolinari Mesh"}, {"children" : [0], "matrix" : [0.4730881154537201, 0, 0, 0, 0, 0.4730881154537201, 0, 0, 0, 0, 0.4730881452560425, 0, 0, 0, 0, 1], "name" : "Armature"}], "samplers" : [{"magFilter" : 9729, "minFilter" : 9987, "wrapS" : 10497, "wrapT" : 10497}], "scene" : 0, "scenes" : [{"nodes" : [1]}], "textures" : [{"sampler" : 0, "source" : 0, "name" : ""}]}